<svg xmlns="http://www.w3.org/2000/svg" width="20.358" height="25.676" viewBox="0 0 20.358 25.676"><defs><style>.a{fill:#fff;}</style></defs><g transform="translate(0)"><path class="a" d="M73.366,21.174,72.219,6.725a1.806,1.806,0,0,0-1.792-1.66H68.162v-.1a4.963,4.963,0,1,0-9.926,0v.1H55.971a1.805,1.805,0,0,0-1.792,1.658L53.032,21.175a4.181,4.181,0,0,0,4.168,4.5h12a4.181,4.181,0,0,0,4.168-4.5ZM59.74,4.963a3.459,3.459,0,1,1,6.918,0v.1H59.74ZM71.162,23.314a2.649,2.649,0,0,1-1.964.858h-12a2.677,2.677,0,0,1-2.669-2.88L55.679,6.84a.3.3,0,0,1,.293-.271h2.265V8.421a.752.752,0,1,0,1.5,0V6.569h6.918V8.421a.752.752,0,1,0,1.5,0V6.569h2.265a.3.3,0,0,1,.293.273L71.867,21.29A2.65,2.65,0,0,1,71.162,23.314Z" transform="translate(-53.02)"/></g></svg>